<?xml version="1.0" standalone="no"?>
<!DOCTYPE svg PUBLIC "-//W3C//DTD SVG 20010904//EN"
 "http://www.w3.org/TR/2001/REC-SVG-20010904/DTD/svg10.dtd">
<svg version="1.0" xmlns="http://www.w3.org/2000/svg"
 width="695.000000pt" height="695.000000pt" viewBox="0 0 695.000000 695.000000"
 preserveAspectRatio="xMidYMid meet">
<metadata>
Created by potrace 1.14, written by Peter Selinger 2001-2017
</metadata>
<g transform="translate(0.000000,695.000000) scale(0.100000,-0.100000)"
fill="#000000" stroke="none">
<path d="M958 6933 c-14 -9 -31 -27 -37 -40 -8 -17 -11 -1015 -11 -3411 0
-3368 0 -3387 20 -3420 11 -18 32 -37 46 -42 15 -6 178 -10 392 -10 l367 0 0
87 c0 104 24 167 83 220 42 38 111 73 143 73 19 0 21 4 16 32 -11 59 -18 93
-22 108 -7 25 -44 242 -50 295 -9 84 -16 139 -20 170 -4 28 -11 108 -20 220
-23 273 -23 856 0 1060 2 22 6 65 9 95 26 308 86 605 191 945 41 132 81 265
89 295 8 30 22 80 31 110 9 30 18 64 20 75 3 11 19 70 36 130 17 61 37 135 45
165 61 224 161 502 249 685 47 99 160 302 175 315 3 3 25 37 50 75 25 39 47
72 51 75 4 3 9 93 12 200 4 107 8 209 11 225 2 17 7 62 11 100 4 39 9 79 11
90 2 11 7 38 10 60 3 22 7 49 9 60 7 47 38 167 66 260 31 101 109 278 128 289
5 4 18 -11 27 -31 10 -21 20 -40 24 -43 3 -3 18 -30 34 -60 85 -160 225 -384
323 -517 l53 -72 33 14 c33 14 158 48 222 60 17 4 79 8 139 9 193 6 361 -49
520 -169 l74 -55 168 85 c282 141 418 222 496 293 14 13 33 22 42 20 13 -3 12
-13 -10 -76 -38 -114 -193 -417 -367 -720 l-25 -44 23 -56 c26 -63 37 -92 40
-107 2 -5 10 -35 19 -65 40 -136 56 -364 34 -495 -5 -33 -11 -71 -13 -85 -2
-14 -4 -25 -5 -25 -1 0 -3 -9 -5 -20 -9 -46 -52 -165 -83 -230 -87 -179 -236
-353 -397 -462 -95 -63 -258 -144 -320 -157 -5 -2 -30 -8 -55 -15 -49 -14 -52
-15 -120 -26 -25 -4 -54 -9 -65 -12 -11 -2 -101 -6 -199 -8 -99 -2 -191 -7
-205 -10 -53 -12 -94 -106 -80 -181 25 -130 158 -235 444 -349 242 -96 392
-177 552 -297 368 -277 593 -689 630 -1153 25 -324 -31 -671 -154 -943 -14
-30 -23 -55 -21 -57 2 -2 25 -6 51 -9 124 -15 260 -107 313 -212 25 -51 29
-68 29 -146 l0 -88 353 0 c381 0 391 1 426 54 15 24 16 277 14 3421 l-3 3395
-33 32 -32 33 -2488 2 c-2304 2 -2489 1 -2514 -14z"/>
</g>
</svg>
